<?xml version="1.0" encoding="UTF-8" standalone="no"?>
<!-- Created with Inkscape (http://www.inkscape.org/) -->

<svg
   width="64"
   height="64"
   id="svg2869"
   version="1.1"
   viewBox="0 0 64 64"
   xml:space="preserve"
   xmlns="http://www.w3.org/2000/svg"
   xmlns:svg="http://www.w3.org/2000/svg"
   xmlns:rdf="http://www.w3.org/1999/02/22-rdf-syntax-ns#"
   xmlns:cc="http://creativecommons.org/ns#"
   xmlns:dc="http://purl.org/dc/elements/1.1/"><defs
     id="defs2871"><linearGradient
       id="linearGradient5"><stop
         style="stop-color:#ef2929;stop-opacity:1;"
         offset="0"
         id="stop19" /><stop
         style="stop-color:#ef2929;stop-opacity:0;"
         offset="1"
         id="stop20" /></linearGradient><linearGradient
       id="swatch18"><stop
         style="stop-color:#ef2929;stop-opacity:1;"
         offset="0"
         id="stop18" /></linearGradient><linearGradient
       id="swatch15"><stop
         style="stop-color:#3d0000;stop-opacity:1;"
         offset="0"
         id="stop15" /></linearGradient><linearGradient
       id="linearGradient5-1"><stop
         style="stop-color:#ef2929;stop-opacity:1;"
         offset="0"
         id="stop5" /><stop
         style="stop-color:#ef2929;stop-opacity:0;"
         offset="1"
         id="stop6" /></linearGradient><linearGradient
       id="linearGradient3836-9"><stop
         style="stop-color:#a40000;stop-opacity:1"
         offset="0"
         id="stop3838-8" /><stop
         style="stop-color:#ef2929;stop-opacity:1"
         offset="1"
         id="stop3840-1" /></linearGradient><linearGradient
       id="linearGradient3836-9-3"><stop
         style="stop-color:#a40000;stop-opacity:1"
         offset="0"
         id="stop3838-8-5" /><stop
         style="stop-color:#ef2929;stop-opacity:1"
         offset="1"
         id="stop3840-1-6" /></linearGradient><linearGradient
       id="linearGradient2"><stop
         style="stop-color:#73d216;stop-opacity:1;"
         offset="0"
         id="stop1" /><stop
         style="stop-color:#8ae234;stop-opacity:1;"
         offset="1"
         id="stop2" /></linearGradient></defs><metadata
     id="metadata2874"><rdf:RDF><cc:Work
         rdf:about=""><dc:format>image/svg+xml</dc:format><dc:type
           rdf:resource="http://purl.org/dc/dcmitype/StillImage" /><dc:creator><cc:Agent><dc:title>[maxwxyz]</dc:title></cc:Agent></dc:creator><dc:relation>https://www.freecad.org/wiki/index.php?title=Artwork</dc:relation><dc:publisher><cc:Agent><dc:title>FreeCAD</dc:title></cc:Agent></dc:publisher><dc:identifier>FreeCAD/src/</dc:identifier><dc:rights><cc:Agent><dc:title>FreeCAD LGPL2+</dc:title></cc:Agent></dc:rights><dc:date>2024</dc:date></cc:Work></rdf:RDF></metadata><g
     id="layer3"
     style="display:inline"><path
       d="M 11.824219,2.015625 A 1,1 0 0 0 11,3 V 22.375 38 a 1,1 0 0 0 0.212891,0.617187 l 8.080078,10.324219 0.002,0.002 a 1,1 0 0 0 0,0.002 l 9.917969,12.671875 a 1,1 0 0 0 1.603515,-0.04102 l 10.839844,-15.355469 2.5,-3.542969 10.660156,-15.101562 A 1,1 0 0 0 54.496094,26.130859 L 36.023437,15.574219 31.464844,12.970703 12.496094,2.1308594 A 1,1 0 0 0 11.824219,2.015625 Z"
       style="display:inline;fill:#eeeeec;stroke:#eeeeec;stroke-linecap:round;stroke-linejoin:round;stroke-width:2;stroke-dasharray:none"
       id="path65" /><g
       id="g14"
       style="display:inline"><path
         style="fill:none;stroke:#000000;stroke-width:2;stroke-linecap:round;stroke-linejoin:round;stroke-dasharray:none"
         d="M 12,3 V 38 L 30,61 54,27 Z"
         id="path2" /><path
         style="fill:none;stroke:#000000;stroke-width:1;stroke-linecap:round;stroke-linejoin:round;stroke-dasharray:none"
         d="M 12,3 30,61"
         id="path3" /><path
         style="fill:none;stroke:#000000;stroke-width:0.5;stroke-linecap:round;stroke-linejoin:round;stroke-dasharray:none"
         d="M 30.969213,13.83955 40.950042,46"
         id="path4" /><path
         style="fill:none;stroke:#000000;stroke-width:0.5;stroke-linecap:round;stroke-linejoin:round;stroke-dasharray:none"
         d="M 22.118795,35.605007 35.527406,16.444232"
         id="path9" /><path
         style="fill:none;stroke:#000000;stroke-width:0.5;stroke-linecap:round;stroke-linejoin:round;stroke-dasharray:none"
         d="M 43.340646,42.100751 19.936037,28.571674"
         id="path10" /><path
         style="fill:none;stroke:#000000;stroke-width:0.5;stroke-linecap:round;stroke-linejoin:round;stroke-dasharray:none"
         d="M 22.118795,35.605007 12,22.375001"
         id="path11" /><path
         style="fill:none;stroke:#000000;stroke-width:0.5;stroke-linecap:round;stroke-linejoin:round;stroke-dasharray:none"
         d="m 19.936037,28.571674 0.146688,19.756252"
         id="path12" /><path
         id="path14"
         style="fill:none;stroke:#000000;stroke-width:0.5;stroke-linecap:round;stroke-linejoin:round;stroke-dasharray:none"
         d="M 39,28 38.95276,39.564328 M 24.994462,31.495706 39,28 32.929626,20.156435" /></g><g
       id="g42"
       style="display:inline"><path
         d="m 43.339844,42.101562 -4.386719,-2.537109 1.886719,6.080078 z"
         style="fill:#8ae234;stroke:#000000;stroke-width:0.25;stroke-linecap:round;stroke-linejoin:round;stroke-dasharray:none"
         id="path56" /><path
         d="M 32.929687,20.15625 35.527344,16.443359 30.96875,13.839844 Z"
         style="fill:#8ae234;stroke:#000000;stroke-width:0.25;stroke-linecap:round;stroke-linejoin:round;stroke-dasharray:none"
         id="path55" /><path
         d="M 39,28 38.95313,39.564453 43.339849,42.101562 54,27 35.527344,16.443359 32.929687,20.15625 Z"
         style="fill:#ef2929;stroke:#000000;stroke-width:0.25;stroke-linecap:round;stroke-linejoin:round;stroke-dasharray:none"
         id="path54" /><path
         d="M 35.625,28.841797 38.953125,39.564453 39,28 Z"
         style="fill:#ef2929;stroke:#000000;stroke-width:0.25;stroke-linecap:round;stroke-linejoin:round;stroke-dasharray:none"
         id="path53" /><path
         d="M 24.994141,31.496094 38.953125,39.564453 35.625,28.841797 Z"
         style="fill:#729fcf;stroke:#000000;stroke-width:0.25;stroke-linecap:round;stroke-linejoin:round;stroke-dasharray:none"
         id="path51" /><path
         d="M 20.082031,48.326172 19.966797,32.791016 12,22.375 V 38 Z"
         style="fill:#204a87;stroke:#000000;stroke-width:0.25;stroke-linecap:round;stroke-linejoin:round;stroke-dasharray:none"
         id="path49" /><path
         d="M 22.119141,35.605469 19.966797,32.791016 20.082031,48.328125 30,61 Z"
         style="fill:#a40000;stroke:#000000;stroke-width:0.25;stroke-linecap:round;stroke-linejoin:round;stroke-dasharray:none"
         id="path48" /><path
         d="M 22.119141,35.605469 30,61 40.839844,45.644531 38.953125,39.564453 24.994141,31.496094 Z"
         style="fill:#ef2929;stroke:#000000;stroke-width:0.25;stroke-linecap:round;stroke-linejoin:round;stroke-dasharray:none"
         id="path47" /><path
         d="m 19.935547,28.572266 0.03125,4.21875 2.152344,2.814453 z"
         style="fill:#4e9a06;stroke:#000000;stroke-width:0.25;stroke-linecap:round;stroke-linejoin:round;stroke-dasharray:none"
         id="path46" /><path
         d="m 19.935547,28.572266 2.183594,7.033203 2.875,-4.109375 z"
         style="fill:#8ae234;stroke:#000000;stroke-width:0.25;stroke-linecap:round;stroke-linejoin:round;stroke-dasharray:none"
         id="path45" /><path
         d="m 12,3 v 19.375 l 7.966797,10.416016 -0.03125,-4.21875 z"
         style="fill:#a40000;stroke:#000000;stroke-width:0.25;stroke-linecap:round;stroke-linejoin:round;stroke-dasharray:none"
         id="path44" /><path
         d="m 12,3 7.935547,25.572266 5.058594,2.923828 7.935546,-11.339844 -1.960937,-6.316406 z"
         style="fill:#ef2929;stroke:#000000;stroke-width:0.25;stroke-linecap:round;stroke-linejoin:round;stroke-dasharray:none"
         id="path43" /><path
         d="M 35.625,28.841797 39,28 32.929687,20.15625 Z"
         style="fill:#ef2929;stroke:#000000;stroke-width:0.25;stroke-linecap:round;stroke-linejoin:round;stroke-dasharray:none"
         id="path52" /><path
         d="M 24.994141,31.496094 35.625,28.841797 32.929687,20.15625 Z"
         style="fill:#729fcf;stroke:#000000;stroke-width:0.25;stroke-linecap:round;stroke-linejoin:round;stroke-dasharray:none"
         id="path50" /></g><path
       style="fill:#eeeeec;stroke:#000000;stroke-width:1;stroke-linecap:round;stroke-linejoin:round;stroke-dasharray:none"
       d="M 12,3 30,61"
       id="path66" /><text
       xml:space="preserve"
       style="font-style:normal;font-variant:normal;font-weight:bold;font-stretch:normal;font-size:23.9362px;font-family:Evolventa;-inkscape-font-specification:'Evolventa, Bold';font-variant-ligatures:no-common-ligatures;font-variant-caps:normal;font-variant-numeric:normal;font-variant-east-asian:normal;display:none;fill:#ffffff;stroke:none;stroke-width:1;stroke-linecap:round;stroke-linejoin:round;stroke-dasharray:none"
       x="3.2844877"
       y="61.688828"
       id="text66"><tspan
         id="tspan66"
         x="3.2844877"
         y="61.688828"
         style="fill:#ffffff;stroke:none;stroke-width:1">fcVM</tspan></text><path
       d="M 9.2929688,42 C 7.4207294,42 5.760815,42.691036 4.5371094,44.089844 l -0.00781,0.0078 c -0.7311903,0.816218 -1.1178548,1.64936 -1.3515625,2.6875 a 2,2 0 0 0 -1.4140625,1.882813 v 2.65625 a 2,2 0 0 0 1.1484375,1.791015 v 8.574219 a 2,2 0 0 0 2,2 h 3.1835937 a 2,2 0 0 0 1.9999999,-2 V 59.462891 C 11.656937,62.181381 14.615829,64 18.005859,64 c 4.022178,0 7.057479,-2.199949 8.457032,-5.972656 a 2,2 0 0 0 -1.875,-2.695313 h -3.589844 a 2,2 0 0 0 -1.679688,0.914063 c -0.432297,0.668095 -0.822474,0.833984 -1.33789,0.833984 -1.028414,0 -1.853516,-0.78999 -1.853516,-2.044922 0,-1.294703 0.732374,-1.998047 1.783203,-1.998047 0.77042,0 1.010114,0.157862 1.3125,0.740235 a 2,2 0 0 0 1.775391,1.078125 h 3.589844 a 2,2 0 0 0 1.988281,-2.091797 l 3.759765,9.652344 a 2,2 0 0 0 1.863282,1.273437 h 2.68164 a 2,2 0 0 0 1.865235,-1.277344 l 4.77539,-12.339843 v 11.617187 a 2,2 0 0 0 2,2 h 3.279297 a 2,2 0 0 0 2,-2 V 60.25 l 0.730469,2.097656 a 2,2 0 0 0 1.888672,1.341797 h 2.68164 a 2,2 0 0 0 1.888672,-1.341797 L 56.720703,60.25 v 1.439453 a 2,2 0 0 0 2,2 H 62 a 2,2 0 0 0 2,-2 V 44 a 2,2 0 0 0 -2,-2 h -4.5 a 2,2 0 0 0 -1.886719,1.335937 l -2.83789,8.06836 -2.869141,-8.074219 A 2,2 0 0 0 48.021484,42 h -4.5 A 2,2 0 0 0 42.640625,42.230469 2,2 0 0 0 41.726562,42 h -3.447265 a 2,2 0 0 0 -1.884766,1.332031 l -2.878906,8.128906 -2.878906,-8.128906 A 2,2 0 0 0 28.751953,42 h -3.445312 a 2,2 0 0 0 -1.863282,2.726562 l 2.175782,5.585938 c -0.353025,-0.58992 -0.773275,-1.118419 -1.330079,-1.660156 l -0.002,-0.002 c -1.691098,-1.658698 -3.999298,-2.533203 -6.376953,-2.533204 -2.344925,0 -4.452398,0.864105 -6.041015,2.28711 a 2,2 0 0 0 -0.08008,-0.363281 2,2 0 0 0 0.292968,-0.976563 V 44.046875 A 2,2 0 0 0 10.330078,42.0625 C 9.8204328,41.998797 9.499157,42 9.2929688,42 Z"
       id="text67"
       style="font-weight:bold;font-size:23.9362px;font-family:Evolventa;-inkscape-font-specification:'Evolventa, Bold';font-variant-ligatures:no-common-ligatures;fill:#2e3436;stroke:none;stroke-linecap:round;stroke-linejoin:round"
       aria-label="fcVM"
       transform="translate(-0.8818372,-2)" /><path
       d="M 4.0305434,59.688828 H 7.214058 V 49.324453 H 9.0092729 V 46.667535 H 7.214058 C 7.237994,45.470725 7.6449095,45.06381 8.8656557,45.06381 h 0.3351061 v -3.015961 c -0.3829785,-0.04787 -0.5744681,-0.04787 -0.7898939,-0.04787 -1.3404272,0 -2.4414924,0.478724 -3.2553231,1.412236 -0.6941497,0.765958 -0.9574479,1.531917 -1.1250014,3.255323 H 2.8816058 v 2.656918 H 4.0305434 Z M 20.115678,55.332439 c -0.789895,1.220746 -1.69947,1.747343 -3.015961,1.747343 -2.202131,0 -3.853728,-1.723407 -3.853728,-4.045218 0,-2.345747 1.555853,-3.997345 3.781919,-3.997345 1.436172,0 2.441492,0.574469 3.08777,1.819151 h 3.59043 c -0.454788,-1.292555 -0.861703,-1.962768 -1.69947,-2.776599 -1.292555,-1.268619 -3.08777,-1.962768 -4.97873,-1.962768 -3.925537,0 -6.98937,3.039897 -6.98937,6.941497 0,3.853728 3.159578,6.941498 7.085115,6.941498 3.111706,0 5.48139,-1.69947 6.582455,-4.667559 z m 11.202142,4.356389 h 2.680854 L 40.844427,41.999976 H 37.397614 L 32.63431,55.45212 27.871007,41.999976 h -3.446813 z m 11.321828,0 h 3.279259 V 46.428173 l 4.619687,13.260655 h 2.680854 l 4.619687,-13.260655 v 13.260655 h 3.279259 V 41.999976 H 56.618388 L 51.902957,55.404248 47.139654,41.999976 h -4.500006 z"
       id="path67"
       style="font-weight:bold;font-size:23.9362px;font-family:Evolventa;-inkscape-font-specification:'Evolventa, Bold';font-variant-ligatures:no-common-ligatures;fill:#ffffff;stroke-linecap:round;stroke-linejoin:round"
       aria-label="fcVM" /></g></svg>
